<?xml version="1.0" encoding="utf-8"?>
<!-- Generator: Adobe Illustrator 23.0.0, SVG Export Plug-In . SVG Version: 6.00 Build 0)  -->
<svg version="1.1" id="Layer_1" xmlns="http://www.w3.org/2000/svg" xmlns:xlink="http://www.w3.org/1999/xlink" x="0px" y="0px"
	 viewBox="0 0 22.5 17.5" style="enable-background:new 0 0 22.5 17.5;" xml:space="preserve">
<g id="_22_Icons_Filled_Star" transform="translate(-0.75 -0.25)">
	<path id="_Icon_Color-2" d="M1.8,17.8c-0.7-0.1-1.2-0.7-1.1-1.4c0.1-0.6,0.5-1,1.1-1.1h17.4c0.7,0.1,1.2,0.7,1.1,1.4
		c-0.1,0.6-0.5,1-1.1,1.1H1.8z M1.6,10.3c-0.5,0-0.8-0.6-0.8-1.3s0.4-1.3,0.8-1.3H15c0.5,0,0.8,0.6,0.8,1.3s-0.4,1.3-0.8,1.3H1.6z
		 M2,2.8c-0.7,0-1.2-0.6-1.2-1.3S1.3,0.3,2,0.3h20c0.7,0,1.3,0.6,1.3,1.3S22.7,2.8,22,2.8H2z"/>
</g>
</svg>
